<?xml version="1.0" standalone="no"?>
<!DOCTYPE svg PUBLIC "-//W3C//DTD SVG 20010904//EN"
 "http://www.w3.org/TR/2001/REC-SVG-20010904/DTD/svg10.dtd">
<svg version="1.0" xmlns="http://www.w3.org/2000/svg"
 width="671.000000pt" height="121.000000pt" viewBox="0 0 671.000000 121.000000"
 preserveAspectRatio="xMidYMid meet">

<g transform="translate(0.000000,121.000000) scale(0.100000,-0.100000)"
fill="#000000" stroke="none">
<path d="M587 1133 c-4 -3 -7 -17 -7 -29 0 -32 -51 -67 -85 -58 -18 4 -32 1
-45 -11 -24 -22 -25 -33 -4 -56 22 -25 9 -87 -22 -101 -36 -17 -30 -78 8 -78
10 0 30 -12 44 -27 21 -23 24 -33 19 -65 -6 -34 -4 -39 19 -49 20 -10 30 -9
48 3 34 22 81 12 101 -21 13 -22 22 -27 46 -23 23 3 30 10 35 35 8 41 55 71
90 57 42 -16 71 34 42 72 -20 26 -8 75 24 98 24 17 27 25 21 48 -5 19 -15 28
-34 32 -39 7 -67 54 -57 91 7 25 5 32 -16 45 -22 15 -26 15 -49 0 -35 -23 -89
-12 -104 20 -7 17 -19 24 -39 24 -16 0 -32 -3 -35 -7z m143 -125 c131 -68 93
-259 -55 -276 -128 -14 -210 141 -127 240 50 59 112 71 182 36z"/>
<path d="M4207 873 c-4 -3 -7 -147 -7 -320 0 -306 0 -313 20 -313 19 0 20 7
20 110 l0 110 140 -111 c109 -86 145 -110 165 -107 22 3 6 18 -120 117 -80 63
-145 116 -145 117 0 2 56 42 125 91 69 48 125 91 125 95 0 24 -50 -2 -163 -82
l-127 -89 0 194 c0 156 -3 195 -13 195 -8 0 -17 -3 -20 -7z"/>
<path d="M5423 863 c-7 -3 -13 -16 -13 -29 0 -19 5 -24 25 -24 20 0 25 5 25
24 0 25 -15 36 -37 29z"/>
<path d="M1870 535 l0 -295 25 0 c22 0 25 4 25 35 l0 35 45 -34 c147 -113 358
-31 397 155 21 104 -36 219 -136 272 -31 16 -59 21 -111 21 -75 0 -118 -15
-167 -62 l-28 -26 0 97 c0 97 0 97 -25 97 l-25 0 0 -295z m323 121 c39 -17 92
-71 106 -109 17 -44 13 -114 -8 -155 -69 -134 -240 -149 -335 -30 -34 44 -46
123 -27 180 14 41 64 96 106 114 40 17 118 17 158 0z"/>
<path d="M5150 741 l0 -70 -47 -3 c-35 -2 -48 -7 -48 -18 0 -11 13 -16 48 -18
l47 -3 0 -195 c0 -187 1 -194 20 -194 19 0 20 7 20 195 l0 195 60 0 c53 0 60
2 60 20 0 18 -7 20 -60 20 l-60 0 0 70 c0 63 -2 70 -20 70 -18 0 -20 -7 -20
-69z"/>
<path d="M230 775 c-6 -15 -20 -27 -37 -31 -54 -11 -54 -12 -47 -49 5 -29 2
-38 -16 -53 -21 -17 -22 -20 -6 -33 41 -35 46 -42 46 -71 0 -29 1 -30 36 -23
30 5 41 2 61 -17 l25 -23 27 34 c20 24 34 32 52 29 22 -3 24 0 24 40 0 30 5
48 18 56 20 16 23 46 4 46 -22 0 -48 35 -45 61 3 22 0 24 -39 21 -34 -2 -45 2
-55 18 -17 27 -37 25 -48 -5z m87 -87 c44 -41 15 -118 -44 -118 -30 0 -73 42
-73 70 0 28 43 70 71 70 13 0 33 -10 46 -22z"/>
<path d="M1046 715 c-120 -43 -191 -168 -166 -291 30 -142 176 -230 314 -190
31 9 72 30 91 47 l35 31 0 -36 c0 -32 3 -36 25 -36 l25 0 0 225 0 225 -25 0
c-20 0 -25 -5 -25 -26 l0 -26 -41 35 c-63 54 -154 70 -233 42z m180 -70 c105
-61 128 -212 46 -298 -60 -63 -144 -83 -220 -52 -129 55 -161 215 -64 319 58
62 162 75 238 31z"/>
<path d="M1410 682 c0 -6 42 -106 94 -224 69 -156 99 -214 113 -216 15 -2 35
36 110 206 51 115 95 216 99 225 5 14 0 17 -23 17 -28 0 -32 -6 -102 -167 -40
-93 -76 -171 -80 -176 -4 -4 -41 70 -82 165 -68 160 -76 173 -101 176 -16 2
-28 -1 -28 -6z"/>
<path d="M2630 669 c-14 -6 -40 -24 -57 -42 l-33 -31 0 37 c0 26 -4 37 -15 37
-13 0 -15 -31 -15 -215 0 -208 1 -215 20 -215 19 0 20 7 20 148 0 134 2 151
23 187 16 29 35 45 70 59 44 18 51 19 89 6 71 -25 82 -57 86 -242 4 -148 5
-158 23 -158 18 0 19 9 19 146 0 114 4 153 16 180 46 96 184 109 230 22 15
-26 19 -64 22 -190 3 -127 7 -158 18 -158 11 0 14 30 14 163 0 134 -3 168 -18
196 -23 47 -61 72 -115 78 -62 7 -111 -12 -149 -56 l-32 -38 -21 31 c-38 57
-127 82 -195 55z"/>
<path d="M3395 661 c-81 -37 -128 -115 -128 -213 -1 -109 70 -198 173 -219 72
-15 128 0 181 48 l39 35 0 -36 c0 -29 4 -36 20 -36 19 0 20 7 20 216 0 200 -1
215 -17 212 -13 -2 -19 -14 -21 -40 l-3 -38 -34 33 c-59 57 -155 73 -230 38z
m137 -21 c83 -23 131 -91 132 -185 0 -73 -23 -125 -72 -163 -31 -23 -45 -27
-106 -27 -58 0 -77 4 -104 23 -49 35 -76 95 -76 167 1 91 42 152 121 180 47
17 58 18 105 5z"/>
<path d="M4754 661 c-133 -61 -168 -267 -62 -373 38 -38 114 -68 173 -68 46 0
135 29 142 46 8 23 1 24 -42 9 -64 -23 -163 -19 -210 8 -44 25 -85 87 -85 130
l0 27 175 0 175 0 0 48 c0 51 -26 117 -56 144 -54 48 -141 60 -210 29z m166
-40 c30 -22 56 -65 65 -108 l7 -33 -161 0 c-174 0 -172 -1 -152 53 15 40 71
96 105 107 42 12 105 4 136 -19z"/>
<path d="M5724 661 c-23 -10 -48 -29 -57 -41 -15 -22 -16 -22 -19 11 -2 23 -9
35 -20 37 -17 3 -18 -12 -18 -212 0 -209 1 -216 20 -216 19 0 20 7 20 140 0
156 8 190 58 232 62 52 157 42 199 -21 22 -32 23 -44 23 -192 0 -152 1 -159
20 -159 19 0 20 7 20 149 0 84 -5 163 -11 182 -32 95 -136 135 -235 90z"/>
<path d="M6205 661 c-144 -67 -179 -259 -68 -373 36 -37 105 -68 151 -68 48 0
106 25 144 61 l38 36 0 -61 c-1 -100 -31 -160 -95 -193 -40 -22 -148 -20 -203
2 -44 18 -58 16 -49 -8 6 -17 110 -47 163 -47 96 0 170 47 201 128 16 41 18
79 18 287 0 207 -2 240 -15 240 -10 0 -17 -13 -20 -38 l-5 -39 -25 27 c-56 62
-158 82 -235 46z m186 -46 c66 -43 99 -160 68 -242 -13 -34 -55 -80 -91 -99
-35 -18 -121 -18 -156 0 -94 49 -128 170 -77 272 49 98 165 129 256 69z"/>
<path d="M3860 455 c0 -175 3 -215 14 -215 10 0 14 31 18 138 4 114 9 144 27
179 27 54 63 77 120 78 53 1 67 28 17 33 -53 6 -95 -8 -131 -44 l-35 -35 0 41
c0 29 -4 40 -15 40 -13 0 -15 -31 -15 -215z"/>
<path d="M5420 455 c0 -184 2 -215 15 -215 13 0 15 31 15 215 0 184 -2 215
-15 215 -13 0 -15 -31 -15 -215z"/>
<path d="M570 621 c-12 -23 -68 -29 -87 -10 -6 6 -20 8 -32 4 -16 -5 -21 -15
-21 -38 0 -42 -25 -77 -54 -77 -35 0 -41 -44 -10 -65 26 -17 31 -49 13 -89
-15 -33 4 -60 37 -52 27 7 71 -26 76 -57 4 -30 53 -37 62 -9 8 25 59 34 86 15
30 -21 63 0 56 35 -7 33 22 72 53 72 30 0 40 47 13 65 -27 20 -35 65 -14 88
23 25 4 51 -39 55 -40 4 -67 25 -71 56 -4 30 -53 35 -68 7z m63 -83 c50 -26
72 -120 42 -178 -32 -63 -138 -81 -194 -35 -121 103 11 289 152 213z"/>
</g>
</svg>
